<mxfile host="app.diagrams.net" modified="2023-09-29T06:01:52.913Z" agent="Mozilla/5.0 (Windows NT 10.0; Win64; x64) AppleWebKit/537.36 (KHTML, like Gecko) Chrome/116.0.0.0 Safari/537.36 OPR/102.0.0.0" version="21.7.4" etag="mkSMJoVRLRs9yuJhuJne" type="device">
  <diagram name="Page-1" id="Ha8s6_4_4nTsxysomdbX">
    <mxGraphModel dx="1048" dy="2567" grid="1" gridSize="10" guides="1" tooltips="1" connect="1" arrows="1" fold="1" page="0" pageScale="1" pageWidth="827" pageHeight="1169" math="0" shadow="0">
      <root>
        <mxCell id="0" />
        <mxCell id="1" parent="0" />
        <mxCell id="0q-gmng08I5UZew5IvPb-52" style="edgeStyle=orthogonalEdgeStyle;shape=connector;rounded=1;orthogonalLoop=1;jettySize=auto;html=1;exitX=0.5;exitY=0;exitDx=0;exitDy=0;entryX=0.948;entryY=1.111;entryDx=0;entryDy=0;entryPerimeter=0;labelBackgroundColor=default;strokeColor=#7C8A9A;strokeWidth=1;fontFamily=VK Sans Display;fontSize=16;fontColor=#212121;startArrow=open;startFill=0;endArrow=open;endFill=0;" parent="1" source="r6wA6CtAhmsi7a3_PIQa-15" target="r6wA6CtAhmsi7a3_PIQa-34" edge="1">
          <mxGeometry relative="1" as="geometry" />
        </mxCell>
        <mxCell id="r6wA6CtAhmsi7a3_PIQa-15" value="&lt;font style=&quot;font-size: 18px;&quot;&gt;Common &amp;amp; Security Services&lt;/font&gt;" style="rounded=1;whiteSpace=wrap;html=1;strokeColor=#7C8A9A;strokeWidth=1;fontColor=#212121;fillColor=none;dashed=1;fontFamily=VK Sans Display;verticalAlign=top;spacing=10;fontStyle=1;arcSize=12;absoluteArcSize=1;fontSize=16;" parent="1" vertex="1">
          <mxGeometry x="1142" y="-1330" width="120" height="610" as="geometry" />
        </mxCell>
        <mxCell id="0q-gmng08I5UZew5IvPb-45" style="edgeStyle=none;shape=connector;rounded=1;orthogonalLoop=1;jettySize=auto;html=1;entryX=0.438;entryY=1.049;entryDx=0;entryDy=0;entryPerimeter=0;labelBackgroundColor=default;strokeColor=#7C8A9A;strokeWidth=1;fontFamily=VK Sans Display;fontSize=16;fontColor=#212121;startArrow=open;startFill=0;endArrow=open;endFill=0;" parent="1" source="r6wA6CtAhmsi7a3_PIQa-16" target="r6wA6CtAhmsi7a3_PIQa-34" edge="1">
          <mxGeometry relative="1" as="geometry" />
        </mxCell>
        <mxCell id="r6wA6CtAhmsi7a3_PIQa-16" value="&lt;font style=&quot;font-size: 18px;&quot;&gt;Datacenter&lt;/font&gt;" style="rounded=1;whiteSpace=wrap;html=1;strokeColor=#7C8A9A;strokeWidth=1;fontColor=#212121;fillColor=none;dashed=1;fontFamily=VK Sans Display;verticalAlign=top;spacing=10;fontStyle=1;arcSize=12;absoluteArcSize=1;movable=1;resizable=1;rotatable=1;deletable=1;editable=1;locked=0;connectable=1;fontSize=16;" parent="1" vertex="1">
          <mxGeometry x="100" y="-1330" width="1018" height="610" as="geometry" />
        </mxCell>
        <mxCell id="r6wA6CtAhmsi7a3_PIQa-17" value="&lt;font color=&quot;#212121&quot; style=&quot;font-size: 18px;&quot;&gt;PaaS&lt;/font&gt;" style="rounded=1;whiteSpace=wrap;html=1;fontFamily=VK Sans Display;strokeColor=none;arcSize=12;fillColor=#F6F7F9;spacing=10;verticalAlign=top;spacingTop=0;spacingLeft=0;spacingBottom=0;fontStyle=1;arcSize=12;absoluteArcSize=1;fontSize=16;" parent="1" vertex="1">
          <mxGeometry x="622" y="-1270" width="473" height="540" as="geometry" />
        </mxCell>
        <mxCell id="r6wA6CtAhmsi7a3_PIQa-18" value="&lt;font color=&quot;#212121&quot; style=&quot;font-size: 16px;&quot;&gt;Cloud Containers&lt;/font&gt;" style="rounded=1;whiteSpace=wrap;html=1;fontFamily=VK Sans Display;strokeColor=#E3E8F2;arcsize=12;fillColor=#FFF;spacing=12;verticalAlign=top;spacingTop=0;strokeWidth=4;spacingLeft=0;spacingBottom=0;fontStyle=1;arcSize=12;absoluteArcSize=1;fontSize=16;" parent="1" vertex="1">
          <mxGeometry x="643" y="-1217" width="210" height="177" as="geometry" />
        </mxCell>
        <mxCell id="r6wA6CtAhmsi7a3_PIQa-19" value="&lt;font color=&quot;#212121&quot; style=&quot;font-size: 16px;&quot;&gt;Docker Registry&lt;/font&gt;" style="rounded=1;whiteSpace=wrap;html=1;fontFamily=VK Sans Display;strokeColor=none;arcsize=12;fillColor=#F6F7F9;spacing=0;spacingTop=12;spacingBottom=12;arcSize=12;absoluteArcSize=1;fontSize=16;" parent="1" vertex="1">
          <mxGeometry x="664" y="-1128" width="170" height="30" as="geometry" />
        </mxCell>
        <mxCell id="r6wA6CtAhmsi7a3_PIQa-25" value="&lt;font color=&quot;#212121&quot; style=&quot;font-size: 16px;&quot;&gt;Kubernetes&lt;/font&gt;" style="rounded=1;whiteSpace=wrap;html=1;fontFamily=VK Sans Display;strokeColor=none;arcsize=12;fillColor=#F6F7F9;spacing=0;spacingTop=12;spacingBottom=12;arcSize=12;absoluteArcSize=1;fontSize=16;" parent="1" vertex="1">
          <mxGeometry x="650" y="-1167" width="94" height="30" as="geometry" />
        </mxCell>
        <mxCell id="r6wA6CtAhmsi7a3_PIQa-26" value="&lt;font color=&quot;#212121&quot; style=&quot;font-size: 16px;&quot;&gt;Autoscaling&lt;/font&gt;" style="rounded=1;whiteSpace=wrap;html=1;fontFamily=VK Sans Display;strokeColor=none;arcsize=12;fillColor=#F6F7F9;spacing=0;spacingTop=12;spacingBottom=12;arcSize=12;absoluteArcSize=1;fontSize=16;" parent="1" vertex="1">
          <mxGeometry x="753" y="-1167" width="90" height="30" as="geometry" />
        </mxCell>
        <mxCell id="r6wA6CtAhmsi7a3_PIQa-31" value="&lt;font color=&quot;#212121&quot; style=&quot;font-size: 16px;&quot;&gt;Addons&lt;/font&gt;" style="rounded=1;whiteSpace=wrap;html=1;fontFamily=VK Sans Display;strokeColor=none;arcsize=12;fillColor=#F6F7F9;spacing=0;spacingTop=12;spacingBottom=12;arcSize=12;absoluteArcSize=1;fontSize=16;" parent="1" vertex="1">
          <mxGeometry x="664" y="-1090" width="170" height="30" as="geometry" />
        </mxCell>
        <mxCell id="r6wA6CtAhmsi7a3_PIQa-34" value="&lt;font color=&quot;#212121&quot; style=&quot;font-size: 16px;&quot;&gt;API&lt;/font&gt;" style="rounded=1;whiteSpace=wrap;html=1;fontFamily=VK Sans Display;strokeColor=none;arcsize=12;fillColor=#F6F7F9;spacing=0;spacingTop=12;spacingBottom=12;arcSize=12;absoluteArcSize=1;fontSize=16;" parent="1" vertex="1">
          <mxGeometry x="100" y="-1398" width="1162" height="30" as="geometry" />
        </mxCell>
        <mxCell id="r6wA6CtAhmsi7a3_PIQa-35" value="&lt;font color=&quot;#212121&quot; style=&quot;font-size: 16px;&quot;&gt;Billing&lt;/font&gt;" style="rounded=1;whiteSpace=wrap;html=1;fontFamily=VK Sans Display;strokeColor=none;arcsize=12;fillColor=#F6F7F9;spacing=0;spacingTop=12;spacingBottom=12;arcSize=12;absoluteArcSize=1;fontSize=16;" parent="1" vertex="1">
          <mxGeometry x="1158.5" y="-1234.08" width="87" height="30" as="geometry" />
        </mxCell>
        <mxCell id="r6wA6CtAhmsi7a3_PIQa-36" value="&lt;font color=&quot;#212121&quot; style=&quot;font-size: 16px;&quot;&gt;Audit&lt;/font&gt;" style="rounded=1;whiteSpace=wrap;html=1;fontFamily=VK Sans Display;strokeColor=none;arcsize=12;fillColor=#F6F7F9;spacing=0;spacingTop=12;spacingBottom=12;arcSize=12;absoluteArcSize=1;fontSize=16;" parent="1" vertex="1">
          <mxGeometry x="1158.5" y="-1183.08" width="87" height="30" as="geometry" />
        </mxCell>
        <mxCell id="r6wA6CtAhmsi7a3_PIQa-37" value="&lt;font color=&quot;#212121&quot; style=&quot;font-size: 16px;&quot;&gt;IAM&lt;/font&gt;" style="rounded=1;whiteSpace=wrap;html=1;fontFamily=VK Sans Display;strokeColor=none;arcsize=12;fillColor=#F6F7F9;spacing=0;spacingTop=12;spacingBottom=12;arcSize=12;absoluteArcSize=1;fontSize=16;" parent="1" vertex="1">
          <mxGeometry x="1158.5" y="-1132.08" width="87" height="30" as="geometry" />
        </mxCell>
        <mxCell id="r6wA6CtAhmsi7a3_PIQa-38" value="&lt;font color=&quot;#212121&quot; style=&quot;font-size: 16px;&quot;&gt;Monitoring&lt;/font&gt;" style="rounded=1;whiteSpace=wrap;html=1;fontFamily=VK Sans Display;strokeColor=none;arcsize=12;fillColor=#F6F7F9;spacing=0;spacingTop=12;spacingBottom=12;arcSize=12;absoluteArcSize=1;fontSize=16;" parent="1" vertex="1">
          <mxGeometry x="1158.5" y="-1079.08" width="87" height="30" as="geometry" />
        </mxCell>
        <mxCell id="r6wA6CtAhmsi7a3_PIQa-39" value="&lt;font color=&quot;#212121&quot; style=&quot;font-size: 16px;&quot;&gt;Keystone&lt;/font&gt;" style="rounded=1;whiteSpace=wrap;html=1;fontFamily=VK Sans Display;strokeColor=none;arcsize=12;fillColor=#F6F7F9;spacing=0;spacingTop=12;spacingBottom=12;arcSize=12;absoluteArcSize=1;fontSize=16;" parent="1" vertex="1">
          <mxGeometry x="1158.5" y="-1028.08" width="87" height="30" as="geometry" />
        </mxCell>
        <mxCell id="r6wA6CtAhmsi7a3_PIQa-41" value="&lt;font color=&quot;#212121&quot; style=&quot;font-size: 18px;&quot;&gt;IaaS&lt;/font&gt;" style="rounded=1;whiteSpace=wrap;html=1;fontFamily=VK Sans Display;strokeColor=none;arcSize=12;fillColor=#F6F7F9;spacing=10;verticalAlign=top;spacingTop=0;spacingLeft=0;spacingBottom=0;fontStyle=1;arcSize=12;absoluteArcSize=1;fontSize=16;" parent="1" vertex="1">
          <mxGeometry x="120" y="-1270" width="478" height="316" as="geometry" />
        </mxCell>
        <mxCell id="r6wA6CtAhmsi7a3_PIQa-42" value="&lt;font color=&quot;#212121&quot; style=&quot;font-size: 16px;&quot;&gt;Cloud Servers&lt;/font&gt;" style="rounded=1;whiteSpace=wrap;html=1;fontFamily=VK Sans Display;strokeColor=#E3E8F2;arcsize=12;fillColor=#FFF;spacing=12;verticalAlign=top;spacingTop=0;strokeWidth=4;spacingLeft=0;spacingBottom=0;fontStyle=1;arcSize=12;absoluteArcSize=1;fontSize=16;" parent="1" vertex="1">
          <mxGeometry x="141" y="-1217" width="213" height="140" as="geometry" />
        </mxCell>
        <mxCell id="r6wA6CtAhmsi7a3_PIQa-43" value="&lt;font color=&quot;#212121&quot; style=&quot;font-size: 16px;&quot;&gt;Disks&lt;/font&gt;" style="rounded=1;whiteSpace=wrap;html=1;fontFamily=VK Sans Display;strokeColor=none;arcsize=12;fillColor=#F6F7F9;spacing=0;spacingTop=12;spacingBottom=12;arcSize=12;absoluteArcSize=1;fontSize=16;" parent="1" vertex="1">
          <mxGeometry x="162.5" y="-1128" width="169" height="30" as="geometry" />
        </mxCell>
        <mxCell id="r6wA6CtAhmsi7a3_PIQa-44" value="&lt;font color=&quot;#212121&quot; style=&quot;font-size: 16px;&quot;&gt;VMs&lt;/font&gt;" style="rounded=1;whiteSpace=wrap;html=1;fontFamily=VK Sans Display;strokeColor=none;arcsize=12;fillColor=#F6F7F9;spacing=0;spacingTop=12;spacingBottom=12;arcSize=12;absoluteArcSize=1;fontSize=16;" parent="1" vertex="1">
          <mxGeometry x="162.5" y="-1167" width="80" height="30" as="geometry" />
        </mxCell>
        <mxCell id="r6wA6CtAhmsi7a3_PIQa-45" value="&lt;font color=&quot;#212121&quot; style=&quot;font-size: 16px;&quot;&gt;Images&lt;/font&gt;" style="rounded=1;whiteSpace=wrap;html=1;fontFamily=VK Sans Display;strokeColor=none;arcsize=12;fillColor=#F6F7F9;spacing=0;spacingTop=12;spacingBottom=12;arcSize=12;absoluteArcSize=1;fontSize=16;" parent="1" vertex="1">
          <mxGeometry x="252.5" y="-1167" width="80" height="30" as="geometry" />
        </mxCell>
        <mxCell id="r6wA6CtAhmsi7a3_PIQa-59" value="&lt;font color=&quot;#212121&quot; style=&quot;font-size: 16px;&quot;&gt;Other PaaS&lt;/font&gt;" style="rounded=1;whiteSpace=wrap;html=1;fontFamily=VK Sans Display;strokeColor=#E3E8F2;arcsize=12;fillColor=#FFF;spacing=12;verticalAlign=top;spacingTop=0;strokeWidth=4;spacingLeft=0;spacingBottom=0;fontStyle=1;arcSize=12;absoluteArcSize=1;fontSize=16;" parent="1" vertex="1">
          <mxGeometry x="863" y="-906" width="210" height="156" as="geometry" />
        </mxCell>
        <mxCell id="r6wA6CtAhmsi7a3_PIQa-60" value="&lt;font color=&quot;#212121&quot; style=&quot;font-size: 16px;&quot;&gt;Logging&lt;/font&gt;" style="rounded=1;whiteSpace=wrap;html=1;fontFamily=VK Sans Display;strokeColor=none;arcsize=12;fillColor=#F6F7F9;spacing=0;spacingTop=12;spacingBottom=12;arcSize=12;absoluteArcSize=1;fontSize=16;" parent="1" vertex="1">
          <mxGeometry x="880" y="-810.9966666666668" width="80" height="30" as="geometry" />
        </mxCell>
        <mxCell id="r6wA6CtAhmsi7a3_PIQa-61" value="&lt;font color=&quot;#212121&quot;&gt;Cloud Monitoring&lt;/font&gt;" style="rounded=1;whiteSpace=wrap;html=1;fontFamily=VK Sans Display;strokeColor=none;arcsize=12;fillColor=#F6F7F9;spacing=0;spacingTop=12;spacingBottom=12;arcSize=12;absoluteArcSize=1;fontSize=16;" parent="1" vertex="1">
          <mxGeometry x="880" y="-853" width="175" height="30" as="geometry" />
        </mxCell>
        <mxCell id="r6wA6CtAhmsi7a3_PIQa-62" value="&lt;font color=&quot;#212121&quot; style=&quot;font-size: 16px;&quot;&gt;Alerting&lt;/font&gt;" style="rounded=1;whiteSpace=wrap;html=1;fontFamily=VK Sans Display;strokeColor=none;arcsize=12;fillColor=#F6F7F9;spacing=0;spacingTop=12;spacingBottom=12;arcSize=12;absoluteArcSize=1;fontSize=16;" parent="1" vertex="1">
          <mxGeometry x="974" y="-810.9966666666667" width="80" height="30" as="geometry" />
        </mxCell>
        <mxCell id="0q-gmng08I5UZew5IvPb-18" value="" style="group;fontFamily=VK Sans Display;fontSize=16;" parent="1" vertex="1" connectable="0">
          <mxGeometry x="864" y="-1217" width="210" height="140" as="geometry" />
        </mxCell>
        <mxCell id="r6wA6CtAhmsi7a3_PIQa-29" value="&lt;font color=&quot;#212121&quot; style=&quot;font-size: 16px;&quot;&gt;Cloud Big Data&lt;/font&gt;" style="rounded=1;whiteSpace=wrap;html=1;fontFamily=VK Sans Display;strokeColor=#E3E8F2;arcsize=12;fillColor=#FFF;spacing=12;verticalAlign=top;spacingTop=0;strokeWidth=4;spacingLeft=0;spacingBottom=0;fontStyle=1;arcSize=12;absoluteArcSize=1;fontSize=16;" parent="0q-gmng08I5UZew5IvPb-18" vertex="1">
          <mxGeometry width="210" height="140" as="geometry" />
        </mxCell>
        <mxCell id="r6wA6CtAhmsi7a3_PIQa-30" value="&lt;font color=&quot;#212121&quot; style=&quot;font-size: 16px;&quot;&gt;Hadoop&lt;/font&gt;" style="rounded=1;whiteSpace=wrap;html=1;fontFamily=VK Sans Display;strokeColor=none;arcsize=12;fillColor=#F6F7F9;spacing=0;spacingTop=12;spacingBottom=12;arcSize=12;absoluteArcSize=1;fontSize=16;" parent="0q-gmng08I5UZew5IvPb-18" vertex="1">
          <mxGeometry x="20" y="50" width="80" height="30" as="geometry" />
        </mxCell>
        <mxCell id="r6wA6CtAhmsi7a3_PIQa-32" value="&lt;font color=&quot;#212121&quot; style=&quot;font-size: 16px;&quot;&gt;Airflow&lt;/font&gt;" style="rounded=1;whiteSpace=wrap;html=1;fontFamily=VK Sans Display;strokeColor=none;arcsize=12;fillColor=#F6F7F9;spacing=0;spacingTop=12;spacingBottom=12;arcSize=12;absoluteArcSize=1;fontSize=16;" parent="0q-gmng08I5UZew5IvPb-18" vertex="1">
          <mxGeometry x="20" y="89" width="170" height="30" as="geometry" />
        </mxCell>
        <mxCell id="r6wA6CtAhmsi7a3_PIQa-33" value="&lt;font color=&quot;#212121&quot; style=&quot;font-size: 16px;&quot;&gt;Spark&lt;/font&gt;" style="rounded=1;whiteSpace=wrap;html=1;fontFamily=VK Sans Display;strokeColor=none;arcsize=12;fillColor=#F6F7F9;spacing=0;spacingTop=12;spacingBottom=12;arcSize=12;absoluteArcSize=1;fontSize=16;" parent="0q-gmng08I5UZew5IvPb-18" vertex="1">
          <mxGeometry x="110" y="50" width="80" height="30" as="geometry" />
        </mxCell>
        <mxCell id="0q-gmng08I5UZew5IvPb-20" value="" style="group;fontFamily=VK Sans Display;fontSize=16;" parent="1" vertex="1" connectable="0">
          <mxGeometry x="141" y="-1066" width="213" height="91" as="geometry" />
        </mxCell>
        <mxCell id="r6wA6CtAhmsi7a3_PIQa-46" value="&lt;font color=&quot;#212121&quot; style=&quot;font-size: 16px;&quot;&gt;Cloud Storage&lt;/font&gt;" style="rounded=1;whiteSpace=wrap;html=1;fontFamily=VK Sans Display;strokeColor=#E3E8F2;arcsize=12;fillColor=#FFF;spacing=12;verticalAlign=top;spacingTop=0;strokeWidth=4;spacingLeft=0;spacingBottom=0;fontStyle=1;arcSize=12;absoluteArcSize=1;fontSize=16;" parent="0q-gmng08I5UZew5IvPb-20" vertex="1">
          <mxGeometry width="213" height="91" as="geometry" />
        </mxCell>
        <mxCell id="r6wA6CtAhmsi7a3_PIQa-47" value="&lt;font color=&quot;#212121&quot; style=&quot;font-size: 16px;&quot;&gt;S3&lt;/font&gt;" style="rounded=1;whiteSpace=wrap;html=1;fontFamily=VK Sans Display;strokeColor=none;arcsize=12;fillColor=#F6F7F9;spacing=0;spacingTop=12;spacingBottom=12;arcSize=12;absoluteArcSize=1;fontSize=16;" parent="0q-gmng08I5UZew5IvPb-20" vertex="1">
          <mxGeometry x="21.5" y="40" width="168" height="30" as="geometry" />
        </mxCell>
        <mxCell id="0q-gmng08I5UZew5IvPb-41" style="edgeStyle=none;shape=connector;rounded=1;orthogonalLoop=1;jettySize=auto;html=1;entryX=0.223;entryY=-0.053;entryDx=0;entryDy=0;entryPerimeter=0;labelBackgroundColor=default;strokeColor=#7C8A9A;strokeWidth=1;fontFamily=VK Sans Display;fontSize=16;fontColor=#212121;startArrow=open;startFill=0;endArrow=open;endFill=0;spacing=1;" parent="1" source="0q-gmng08I5UZew5IvPb-30" target="r6wA6CtAhmsi7a3_PIQa-34" edge="1">
          <mxGeometry relative="1" as="geometry" />
        </mxCell>
        <mxCell id="0q-gmng08I5UZew5IvPb-30" value="&lt;font color=&quot;#212121&quot; style=&quot;font-size: 16px;&quot;&gt;CLI&lt;/font&gt;" style="rounded=1;whiteSpace=wrap;html=1;fontFamily=VK Sans Display;strokeColor=none;arcsize=12;fillColor=#F6F7F9;spacing=0;spacingTop=12;spacingBottom=12;arcSize=12;absoluteArcSize=1;fontSize=16;" parent="1" vertex="1">
          <mxGeometry x="275" y="-1466" width="169" height="30" as="geometry" />
        </mxCell>
        <mxCell id="0q-gmng08I5UZew5IvPb-42" style="edgeStyle=none;shape=connector;rounded=1;orthogonalLoop=1;jettySize=auto;html=1;entryX=0.5;entryY=0;entryDx=0;entryDy=0;labelBackgroundColor=default;strokeColor=#7C8A9A;strokeWidth=1;fontFamily=VK Sans Display;fontSize=16;fontColor=#212121;startArrow=open;startFill=0;endArrow=open;endFill=0;" parent="1" source="0q-gmng08I5UZew5IvPb-31" target="r6wA6CtAhmsi7a3_PIQa-34" edge="1">
          <mxGeometry relative="1" as="geometry" />
        </mxCell>
        <mxCell id="0q-gmng08I5UZew5IvPb-31" value="&lt;font color=&quot;#212121&quot; style=&quot;font-size: 16px;&quot;&gt;Personal account&lt;/font&gt;" style="rounded=1;whiteSpace=wrap;html=1;fontFamily=VK Sans Display;strokeColor=none;arcsize=12;fillColor=#F6F7F9;spacing=0;spacingTop=12;spacingBottom=12;arcSize=12;absoluteArcSize=1;fontSize=16;" parent="1" vertex="1">
          <mxGeometry x="596" y="-1466" width="169" height="30" as="geometry" />
        </mxCell>
        <mxCell id="0q-gmng08I5UZew5IvPb-40" style="edgeStyle=none;shape=connector;rounded=1;orthogonalLoop=1;jettySize=auto;html=1;exitX=0.5;exitY=1;exitDx=0;exitDy=0;entryX=0.75;entryY=0;entryDx=0;entryDy=0;labelBackgroundColor=default;strokeColor=#7C8A9A;strokeWidth=1;fontFamily=VK Sans Display;fontSize=16;fontColor=#212121;startArrow=open;startFill=0;endArrow=open;endFill=0;" parent="1" source="0q-gmng08I5UZew5IvPb-32" target="r6wA6CtAhmsi7a3_PIQa-34" edge="1">
          <mxGeometry relative="1" as="geometry" />
        </mxCell>
        <mxCell id="0q-gmng08I5UZew5IvPb-32" value="&lt;font color=&quot;#212121&quot; style=&quot;font-size: 16px;&quot;&gt;Terraform&lt;/font&gt;" style="rounded=1;whiteSpace=wrap;html=1;fontFamily=VK Sans Display;strokeColor=none;arcsize=12;fillColor=#F6F7F9;spacing=0;spacingTop=12;spacingBottom=12;arcSize=12;absoluteArcSize=1;fontSize=16;" parent="1" vertex="1">
          <mxGeometry x="887.5" y="-1466" width="169" height="30" as="geometry" />
        </mxCell>
        <mxCell id="0q-gmng08I5UZew5IvPb-43" style="edgeStyle=none;shape=connector;rounded=1;orthogonalLoop=1;jettySize=auto;html=1;labelBackgroundColor=default;strokeColor=#7C8A9A;strokeWidth=1;fontFamily=VK Sans Display;fontSize=16;fontColor=#212121;startArrow=open;startFill=0;endArrow=open;endFill=0;entryX=0.5;entryY=0;entryDx=0;entryDy=0;" parent="1" source="0q-gmng08I5UZew5IvPb-35" target="0q-gmng08I5UZew5IvPb-31" edge="1">
          <mxGeometry relative="1" as="geometry">
            <mxPoint x="680.5" y="-1510" as="targetPoint" />
          </mxGeometry>
        </mxCell>
        <mxCell id="0q-gmng08I5UZew5IvPb-49" style="edgeStyle=orthogonalEdgeStyle;shape=connector;rounded=1;orthogonalLoop=1;jettySize=auto;html=1;exitX=0.5;exitY=1;exitDx=0;exitDy=0;entryX=0.5;entryY=0;entryDx=0;entryDy=0;labelBackgroundColor=default;strokeColor=#7C8A9A;strokeWidth=1;fontFamily=VK Sans Display;fontSize=16;fontColor=#212121;startArrow=open;startFill=0;endArrow=open;endFill=0;" parent="1" source="0q-gmng08I5UZew5IvPb-35" target="0q-gmng08I5UZew5IvPb-32" edge="1">
          <mxGeometry relative="1" as="geometry" />
        </mxCell>
        <mxCell id="0q-gmng08I5UZew5IvPb-50" style="edgeStyle=orthogonalEdgeStyle;shape=connector;rounded=1;orthogonalLoop=1;jettySize=auto;html=1;exitX=0.5;exitY=1;exitDx=0;exitDy=0;labelBackgroundColor=default;strokeColor=#7C8A9A;strokeWidth=1;fontFamily=VK Sans Display;fontSize=16;fontColor=#212121;startArrow=open;startFill=0;endArrow=open;endFill=0;" parent="1" source="0q-gmng08I5UZew5IvPb-35" target="0q-gmng08I5UZew5IvPb-30" edge="1">
          <mxGeometry relative="1" as="geometry" />
        </mxCell>
        <mxCell id="0q-gmng08I5UZew5IvPb-35" value="User" style="shape=image;verticalLabelPosition=bottom;labelBackgroundColor=default;verticalAlign=top;aspect=fixed;imageAspect=0;image=data:image/svg+xml,PHN2ZyB4bWxucz0iaHR0cDovL3d3dy53My5vcmcvMjAwMC9zdmciIGZpbGw9Im5vbmUiIHZpZXdCb3g9IjAgMCAyOCAyOCIgaGVpZ2h0PSIyOCIgd2lkdGg9IjI4Ij4mI3hhOzxwYXRoIGZpbGw9IiMyNjg4RUIiIGQ9Ik0xNy41IDguNUMxNy41IDYuNTY2MDMgMTUuOTM0IDUgMTQgNUMxMi4wNjYgNSAxMC41IDYuNTY2MDMgMTAuNSA4LjVDMTAuNSAxMC40MzQgMTIuMDY2IDEyIDE0IDEyQzE1LjkzNCAxMiAxNy41IDEwLjQzNCAxNy41IDguNVpNMTkuNSA4LjVDMTkuNSAxMS41Mzg1IDE3LjAzODUgMTQgMTQgMTRDMTAuOTYxNSAxNCA4LjUgMTEuNTM4NSA4LjUgOC41QzguNSA1LjQ2MTQ3IDEwLjk2MTUgMyAxNCAzQzE3LjAzODUgMyAxOS41IDUuNDYxNDcgMTkuNSA4LjVaTTcgMjAuNjQyOUM3IDIxLjU4NjIgNi45MTk4NyAyMS41IDcuNDU1ODggMjEuNUgyMS4wNDQxQzIxLjU4MDEgMjEuNSAyMS41IDIxLjU4NjIgMjEuNSAyMC42NDI5QzIxLjUgMTguMzU0NyAxOC4xOTYgMTcgMTQuMjUgMTdDMTAuMzA0IDE3IDcgMTguMzU0NyA3IDIwLjY0MjlaTTUgMjAuNjQyOUM1IDE2Ljc2MjYgOS4yOTg5MiAxNSAxNC4yNSAxNUMxOS4yMDExIDE1IDIzLjUgMTYuNzYyNiAyMy41IDIwLjY0MjlDMjMuNSAyMi42NTkzIDIyLjcxODkgMjMuNSAyMS4wNDQxIDIzLjVINy40NTU4OEM1Ljc4MTExIDIzLjUgNSAyMi42NTkzIDUgMjAuNjQyOVoiLz4mI3hhOzwvc3ZnPg==;fontFamily=VK Sans Display;spacing=-7;fontColor=#212121;fontSize=14;" parent="1" vertex="1">
          <mxGeometry x="652.5" y="-1602" width="56" height="56" as="geometry" />
        </mxCell>
        <mxCell id="r6wA6CtAhmsi7a3_PIQa-49" value="&lt;font color=&quot;#212121&quot; style=&quot;font-size: 16px;&quot;&gt;Cloud Networks&lt;/font&gt;" style="rounded=1;whiteSpace=wrap;html=1;fontFamily=VK Sans Display;strokeColor=#E3E8F2;arcSize=12;fillColor=#FFF;spacing=12;verticalAlign=top;spacingTop=0;strokeWidth=4;spacingLeft=0;spacingBottom=0;fontStyle=1;absoluteArcSize=1;fontSize=16;" parent="1" vertex="1">
          <mxGeometry x="365" y="-1217" width="212" height="241.99999999999997" as="geometry" />
        </mxCell>
        <mxCell id="r6wA6CtAhmsi7a3_PIQa-50" value="&lt;font color=&quot;#212121&quot; style=&quot;font-size: 16px;&quot;&gt;SDN Sprut&lt;/font&gt;" style="rounded=1;whiteSpace=wrap;html=1;fontFamily=VK Sans Display;strokeColor=none;arcsize=12;fillColor=#F6F7F9;spacing=0;spacingTop=12;spacingBottom=12;arcSize=12;absoluteArcSize=1;fontSize=16;" parent="1" vertex="1">
          <mxGeometry x="383.5" y="-1162.195669298551" width="80" height="32.85067873303167" as="geometry" />
        </mxCell>
        <mxCell id="r6wA6CtAhmsi7a3_PIQa-51" value="&lt;font color=&quot;#212121&quot; style=&quot;font-size: 16px;&quot;&gt;CDN&lt;/font&gt;" style="rounded=1;whiteSpace=wrap;html=1;fontFamily=VK Sans Display;strokeColor=none;arcsize=12;fillColor=#F6F7F9;spacing=0;spacingTop=12;spacingBottom=12;arcSize=12;absoluteArcSize=1;fontSize=16;" parent="1" vertex="1">
          <mxGeometry x="383.5" y="-1075.1657537508931" width="80" height="32.85067873303167" as="geometry" />
        </mxCell>
        <mxCell id="r6wA6CtAhmsi7a3_PIQa-52" value="&lt;font color=&quot;#212121&quot; style=&quot;font-size: 16px;&quot;&gt;SDN Neutron&lt;/font&gt;" style="rounded=1;whiteSpace=wrap;html=1;fontFamily=VK Sans Display;strokeColor=none;arcsize=12;fillColor=#F6F7F9;spacing=0;spacingTop=12;spacingBottom=12;arcSize=12;absoluteArcSize=1;fontSize=16;" parent="1" vertex="1">
          <mxGeometry x="383.5" y="-1123.23" width="80" height="39.23" as="geometry" />
        </mxCell>
        <mxCell id="r6wA6CtAhmsi7a3_PIQa-53" value="&lt;font color=&quot;#212121&quot; style=&quot;font-size: 16px;&quot;&gt;DNS&lt;/font&gt;" style="rounded=1;whiteSpace=wrap;html=1;fontFamily=VK Sans Display;strokeColor=none;arcsize=12;fillColor=#F6F7F9;spacing=0;spacingTop=12;spacingBottom=12;arcSize=12;absoluteArcSize=1;fontSize=16;" parent="1" vertex="1">
          <mxGeometry x="474" y="-1162.195669298551" width="80" height="32.85067873303167" as="geometry" />
        </mxCell>
        <mxCell id="r6wA6CtAhmsi7a3_PIQa-54" value="&lt;font color=&quot;#212121&quot; style=&quot;font-size: 16px;&quot;&gt;AntiDDoS&lt;/font&gt;" style="rounded=1;whiteSpace=wrap;html=1;fontFamily=VK Sans Display;strokeColor=none;arcsize=12;fillColor=#F6F7F9;spacing=0;spacingTop=12;spacingBottom=12;arcSize=12;absoluteArcSize=1;fontSize=16;" parent="1" vertex="1">
          <mxGeometry x="474" y="-1075.1657537508931" width="80" height="32.85067873303167" as="geometry" />
        </mxCell>
        <mxCell id="r6wA6CtAhmsi7a3_PIQa-55" value="&lt;font color=&quot;#212121&quot; style=&quot;font-size: 16px;&quot;&gt;WAF&lt;/font&gt;" style="rounded=1;whiteSpace=wrap;html=1;fontFamily=VK Sans Display;strokeColor=none;arcsize=12;fillColor=#F6F7F9;spacing=0;spacingTop=12;spacingBottom=12;arcSize=12;absoluteArcSize=1;fontSize=16;" parent="1" vertex="1">
          <mxGeometry x="474" y="-1119.2282228369393" width="80" height="32.85067873303167" as="geometry" />
        </mxCell>
        <mxCell id="r6wA6CtAhmsi7a3_PIQa-56" value="Load Balanсer" style="rounded=1;whiteSpace=wrap;html=1;fontFamily=VK Sans Display;strokeColor=none;arcsize=12;fillColor=#F6F7F9;spacing=0;spacingTop=12;spacingBottom=12;arcSize=12;absoluteArcSize=1;fontSize=16;" parent="1" vertex="1">
          <mxGeometry x="383.5" y="-1030.9259530657484" width="171" height="32.85067873303167" as="geometry" />
        </mxCell>
        <mxCell id="0q-gmng08I5UZew5IvPb-2" value="&lt;font color=&quot;#212121&quot; style=&quot;font-size: 16px;&quot;&gt;MLOps &amp;amp; AI&lt;/font&gt;" style="rounded=1;whiteSpace=wrap;html=1;fontFamily=VK Sans Display;strokeColor=#E3E8F2;arcsize=12;fillColor=#FFF;spacing=12;verticalAlign=top;spacingTop=0;strokeWidth=4;spacingLeft=0;spacingBottom=0;fontStyle=1;arcSize=12;absoluteArcSize=1;fontSize=16;" parent="1" vertex="1">
          <mxGeometry x="864" y="-1062" width="210" height="141" as="geometry" />
        </mxCell>
        <mxCell id="0q-gmng08I5UZew5IvPb-3" value="&lt;font color=&quot;#212121&quot;&gt;Cloud ML Platform&lt;/font&gt;" style="rounded=1;whiteSpace=wrap;html=1;fontFamily=VK Sans Display;strokeColor=none;arcsize=12;fillColor=#F6F7F9;spacing=0;spacingTop=12;spacingBottom=12;arcSize=12;absoluteArcSize=1;fontSize=16;" parent="1" vertex="1">
          <mxGeometry x="884" y="-1013" width="170" height="30" as="geometry" />
        </mxCell>
        <mxCell id="0q-gmng08I5UZew5IvPb-4" value="&lt;font color=&quot;#212121&quot; style=&quot;font-size: 16px;&quot;&gt;Vision&lt;/font&gt;" style="rounded=1;whiteSpace=wrap;html=1;fontFamily=VK Sans Display;strokeColor=none;arcsize=12;fillColor=#F6F7F9;spacing=0;spacingTop=12;spacingBottom=12;arcSize=12;absoluteArcSize=1;fontSize=16;" parent="1" vertex="1">
          <mxGeometry x="974" y="-972" width="80" height="30" as="geometry" />
        </mxCell>
        <mxCell id="0q-gmng08I5UZew5IvPb-8" value="&lt;font color=&quot;#212121&quot; style=&quot;font-size: 16px;&quot;&gt;Voice&lt;/font&gt;" style="rounded=1;whiteSpace=wrap;html=1;fontFamily=VK Sans Display;strokeColor=none;arcsize=12;fillColor=#F6F7F9;spacing=0;spacingTop=12;spacingBottom=12;arcSize=12;absoluteArcSize=1;fontSize=16;" parent="1" vertex="1">
          <mxGeometry x="884" y="-972" width="80" height="30" as="geometry" />
        </mxCell>
        <mxCell id="r6wA6CtAhmsi7a3_PIQa-20" value="&lt;font color=&quot;#212121&quot; style=&quot;font-size: 16px;&quot;&gt;Cloud Databases&lt;/font&gt;" style="rounded=1;whiteSpace=wrap;html=1;fontFamily=VK Sans Display;strokeColor=#E3E8F2;arcSize=12;fillColor=#FFF;spacing=12;verticalAlign=top;spacingTop=0;strokeWidth=4;spacingLeft=0;spacingBottom=0;fontStyle=1;absoluteArcSize=1;fontSize=16;" parent="1" vertex="1">
          <mxGeometry x="643" y="-1029" width="210" height="279" as="geometry" />
        </mxCell>
        <mxCell id="r6wA6CtAhmsi7a3_PIQa-21" value="&lt;font color=&quot;#212121&quot; style=&quot;font-size: 16px;&quot;&gt;MySQL&lt;/font&gt;" style="rounded=1;whiteSpace=wrap;html=1;fontFamily=VK Sans Display;strokeColor=none;arcsize=12;fillColor=#F6F7F9;spacing=0;spacingTop=12;spacingBottom=12;arcSize=12;absoluteArcSize=1;fontSize=16;" parent="1" vertex="1">
          <mxGeometry x="656" y="-979" width="80" height="30" as="geometry" />
        </mxCell>
        <mxCell id="r6wA6CtAhmsi7a3_PIQa-22" value="&lt;font color=&quot;#212121&quot; style=&quot;font-size: 16px;&quot;&gt;Redis&lt;/font&gt;" style="rounded=1;whiteSpace=wrap;html=1;fontFamily=VK Sans Display;strokeColor=none;arcsize=12;fillColor=#F6F7F9;spacing=0;spacingTop=12;spacingBottom=12;arcSize=12;absoluteArcSize=1;fontSize=16;" parent="1" vertex="1">
          <mxGeometry x="656" y="-858" width="80" height="30" as="geometry" />
        </mxCell>
        <mxCell id="r6wA6CtAhmsi7a3_PIQa-23" value="&lt;font color=&quot;#212121&quot; style=&quot;font-size: 16px;&quot;&gt;Postgres Pro&lt;/font&gt;" style="rounded=1;whiteSpace=wrap;html=1;fontFamily=VK Sans Display;strokeColor=none;arcsize=12;fillColor=#F6F7F9;spacing=0;spacingTop=12;spacingBottom=12;arcSize=12;absoluteArcSize=1;fontSize=16;" parent="1" vertex="1">
          <mxGeometry x="656" y="-939" width="100" height="30" as="geometry" />
        </mxCell>
        <mxCell id="r6wA6CtAhmsi7a3_PIQa-24" value="&lt;font color=&quot;#212121&quot; style=&quot;font-size: 16px;&quot;&gt;MongoDB&lt;/font&gt;" style="rounded=1;whiteSpace=wrap;html=1;fontFamily=VK Sans Display;strokeColor=none;arcsize=12;fillColor=#F6F7F9;spacing=0;spacingTop=12;spacingBottom=12;arcSize=12;absoluteArcSize=1;fontSize=16;" parent="1" vertex="1">
          <mxGeometry x="763" y="-939" width="80" height="30" as="geometry" />
        </mxCell>
        <mxCell id="r6wA6CtAhmsi7a3_PIQa-27" value="&lt;font color=&quot;#212121&quot; style=&quot;font-size: 16px;&quot;&gt;PostgreSQL&lt;/font&gt;" style="rounded=1;whiteSpace=wrap;html=1;fontFamily=VK Sans Display;strokeColor=none;arcsize=12;fillColor=#F6F7F9;spacing=0;spacingTop=12;spacingBottom=12;arcSize=12;absoluteArcSize=1;fontSize=16;" parent="1" vertex="1">
          <mxGeometry x="743" y="-979" width="100" height="30" as="geometry" />
        </mxCell>
        <mxCell id="r6wA6CtAhmsi7a3_PIQa-28" value="&lt;font color=&quot;#212121&quot; style=&quot;font-size: 16px;&quot;&gt;Clickhouse&lt;/font&gt;" style="rounded=1;whiteSpace=wrap;html=1;fontFamily=VK Sans Display;strokeColor=none;arcsize=12;fillColor=#F6F7F9;spacing=0;spacingTop=12;spacingBottom=12;arcSize=12;absoluteArcSize=1;fontSize=16;" parent="1" vertex="1">
          <mxGeometry x="744.75" y="-898" width="98.25" height="30" as="geometry" />
        </mxCell>
        <mxCell id="r6wA6CtAhmsi7a3_PIQa-57" value="&lt;font color=&quot;#212121&quot; style=&quot;font-size: 16px;&quot;&gt;Arenadata DB (Greenplum)&lt;/font&gt;" style="rounded=1;whiteSpace=wrap;html=1;fontFamily=VK Sans Display;strokeColor=none;arcsize=12;fillColor=#F6F7F9;spacing=0;spacingTop=12;spacingBottom=12;arcSize=12;absoluteArcSize=1;fontSize=16;" parent="1" vertex="1">
          <mxGeometry x="663" y="-818" width="180" height="49" as="geometry" />
        </mxCell>
        <mxCell id="0q-gmng08I5UZew5IvPb-1" value="&lt;font color=&quot;#212121&quot; style=&quot;font-size: 16px;&quot;&gt;Tarantool&lt;/font&gt;" style="rounded=1;whiteSpace=wrap;html=1;fontFamily=VK Sans Display;strokeColor=none;arcsize=12;fillColor=#F6F7F9;spacing=0;spacingTop=12;spacingBottom=12;arcSize=12;absoluteArcSize=1;fontSize=16;" parent="1" vertex="1">
          <mxGeometry x="656" y="-898" width="80" height="30" as="geometry" />
        </mxCell>
        <mxCell id="2" value="&lt;font color=&quot;#212121&quot; style=&quot;font-size: 16px;&quot;&gt;OpenSearch&lt;/font&gt;" style="rounded=1;whiteSpace=wrap;html=1;fontFamily=VK Sans Display;strokeColor=none;arcsize=12;fillColor=#F6F7F9;spacing=0;spacingTop=12;spacingBottom=12;arcSize=12;absoluteArcSize=1;fontSize=16;" parent="1" vertex="1">
          <mxGeometry x="744.75" y="-858" width="98.5" height="30" as="geometry" />
        </mxCell>
      </root>
    </mxGraphModel>
  </diagram>
</mxfile>
